<svg xmlns="http://www.w3.org/2000/svg" xmlns:xlink="http://www.w3.org/1999/xlink" width="500" zoomAndPan="magnify" viewBox="0 0 375 374.999991" height="500" preserveAspectRatio="xMidYMid meet" version="1.0"><defs><g/><clipPath id="f3ced75b99"><path d="M 50.539062 107 L 324.613281 107 L 324.613281 192.648438 L 50.539062 192.648438 Z M 50.539062 107 " clip-rule="nonzero"/></clipPath></defs><g clip-path="url(#f3ced75b99)"><path fill="#000000" d="M 50.679688 193.132812 L 89.65625 167.117188 C 91.929688 165.605469 94.582031 164.78125 97.3125 164.769531 L 98.621094 164.753906 C 101.285156 164.730469 103.902344 163.957031 106.136719 162.496094 L 153.53125 131.734375 C 155.421875 130.5 157.632812 129.828125 159.890625 129.804688 C 162.480469 129.765625 164.984375 128.902344 167.039062 127.316406 L 192.164062 107.992188 C 193.648438 106.847656 195.746094 107 197.050781 108.347656 L 215.105469 126.910156 C 217.632812 129.5 220.617188 131.59375 223.917969 133.078125 L 236.828125 138.867188 C 241.171875 140.8125 244.917969 143.871094 247.695312 147.730469 L 250.007812 150.941406 C 251.886719 153.558594 254.804688 155.234375 258.019531 155.539062 L 259.605469 155.691406 C 262.460938 155.957031 265.230469 156.859375 267.707031 158.332031 L 324.152344 191.964844 C 324.304688 192.050781 324.191406 192.292969 324.011719 192.21875 L 263.289062 165.683594 C 262.792969 165.464844 262.273438 165.339844 261.738281 165.289062 C 258.222656 164.984375 255.53125 168.359375 256.609375 171.726562 L 260.429688 183.609375 L 241.742188 159.410156 C 238.328125 154.992188 232.742188 152.820312 227.242188 153.785156 L 218.445312 155.324219 C 214.878906 155.945312 211.5 153.480469 211.003906 149.902344 L 210.816406 148.515625 C 210.292969 144.796875 205.546875 143.554688 203.261719 146.535156 L 191.65625 161.707031 L 197.34375 122.375 C 197.457031 121.601562 197.28125 120.800781 196.863281 120.140625 C 195.78125 118.453125 193.445312 118.136719 191.949219 119.480469 L 180.890625 129.359375 C 176.839844 132.976562 174.695312 138.257812 175.074219 143.667969 L 175.925781 155.90625 L 171.800781 148.226562 C 170.339844 145.484375 167.355469 143.921875 164.273438 144.25 C 161.1875 144.582031 158.609375 146.765625 157.769531 149.75 L 150.152344 176.777344 L 150.382812 151.09375 C 150.40625 148.59375 147.589844 147.121094 145.546875 148.554688 L 95.714844 183.53125 L 100.082031 175.953125 C 100.742188 174.8125 100.082031 173.351562 98.785156 173.085938 L 97.339844 172.792969 C 96.945312 172.714844 96.539062 172.753906 96.171875 172.917969 Z M 50.679688 193.132812 " fill-opacity="1" fill-rule="evenodd"/></g><g fill="#000000" fill-opacity="1"><g transform="translate(87.868356, 231.704338)"><g><path d="M 2.53125 -15.703125 C 1.769531 -18.554688 1.585938 -21.378906 1.984375 -24.171875 C 2.390625 -26.972656 3.285156 -29.582031 4.671875 -32 C 6.066406 -34.414062 7.867188 -36.488281 10.078125 -38.21875 C 12.296875 -39.945312 14.832031 -41.191406 17.6875 -41.953125 C 20.539062 -42.722656 23.367188 -42.90625 26.171875 -42.5 C 28.972656 -42.101562 31.578125 -41.207031 33.984375 -39.8125 C 36.398438 -38.425781 38.472656 -36.625 40.203125 -34.40625 C 41.941406 -32.195312 43.191406 -29.664062 43.953125 -26.8125 C 44.710938 -23.945312 44.890625 -21.125 44.484375 -18.34375 C 44.085938 -15.570312 43.195312 -12.976562 41.8125 -10.5625 C 40.425781 -8.144531 38.625 -6.0625 36.40625 -4.3125 C 34.1875 -2.5625 31.648438 -1.304688 28.796875 -0.546875 C 25.941406 0.222656 23.125 0.40625 20.34375 0 C 17.570312 -0.40625 14.976562 -1.300781 12.5625 -2.6875 C 10.144531 -4.070312 8.0625 -5.867188 6.3125 -8.078125 C 4.5625 -10.296875 3.300781 -12.835938 2.53125 -15.703125 Z M 39.671875 -25.65625 C 39.066406 -28.03125 38.078125 -30.300781 36.703125 -32.46875 C 35.335938 -34.644531 33.675781 -36.539062 31.71875 -38.15625 C 29.769531 -39.769531 27.628906 -40.894531 25.296875 -41.53125 C 22.960938 -42.175781 20.488281 -42.160156 17.875 -41.484375 C 15.257812 -40.796875 13.09375 -39.578125 11.375 -37.828125 C 9.664062 -36.078125 8.367188 -34.023438 7.484375 -31.671875 C 6.597656 -29.316406 6.113281 -26.847656 6.03125 -24.265625 C 5.957031 -21.691406 6.222656 -19.21875 6.828125 -16.84375 C 7.460938 -14.507812 8.460938 -12.253906 9.828125 -10.078125 C 11.203125 -7.910156 12.851562 -6.019531 14.78125 -4.40625 C 16.71875 -2.800781 18.875 -1.664062 21.25 -1 C 23.625 -0.332031 26.097656 -0.363281 28.671875 -1.09375 C 31.296875 -1.769531 33.453125 -2.984375 35.140625 -4.734375 C 36.828125 -6.484375 38.113281 -8.535156 39 -10.890625 C 39.882812 -13.242188 40.375 -15.707031 40.46875 -18.28125 C 40.570312 -20.863281 40.304688 -23.320312 39.671875 -25.65625 Z M 39.671875 -25.65625 "/></g></g></g><g fill="#000000" fill-opacity="1"><g transform="translate(134.408772, 231.704338)"><g><path d="M 8.9375 -42.328125 L 8.9375 -41.78125 C 8.769531 -41.78125 8.492188 -41.507812 8.109375 -40.96875 C 7.734375 -40.425781 7.546875 -39.144531 7.546875 -37.125 L 7.546875 -0.546875 L 14.375 -0.546875 C 17.382812 -0.867188 19.851562 -1.421875 21.78125 -2.203125 C 23.71875 -2.984375 25.613281 -3.941406 27.46875 -5.078125 L 28.015625 -5.078125 L 28.015625 0.0625 L 22.828125 0.0625 L 21.25 0 L 1.8125 0 L 1.8125 -0.546875 C 2.007812 -0.546875 2.289062 -0.828125 2.65625 -1.390625 C 3.019531 -1.953125 3.203125 -3.21875 3.203125 -5.1875 L 3.203125 -37.125 C 3.203125 -39.144531 3.019531 -40.425781 2.65625 -40.96875 C 2.289062 -41.507812 2.007812 -41.78125 1.8125 -41.78125 L 1.8125 -42.328125 Z M 8.9375 -42.328125 "/></g></g></g><g fill="#000000" fill-opacity="1"><g transform="translate(164.22844, 231.704338)"><g><path d="M 33.203125 -34.84375 L 23.546875 -15.09375 L 23.546875 -5.1875 C 23.546875 -3.21875 23.734375 -1.953125 24.109375 -1.390625 C 24.492188 -0.828125 24.769531 -0.546875 24.9375 -0.546875 L 24.9375 0 L 17.875 0 L 17.875 -0.546875 C 18.070312 -0.546875 18.351562 -0.828125 18.71875 -1.390625 C 19.082031 -1.953125 19.265625 -3.21875 19.265625 -5.1875 L 19.265625 -14 L 8.390625 -34.109375 C 7.460938 -35.441406 6.597656 -36.703125 5.796875 -37.890625 C 4.992188 -39.078125 4.257812 -40.039062 3.59375 -40.78125 C 2.925781 -41.53125 2.332031 -41.90625 1.8125 -41.90625 L 1.8125 -42.4375 C 3.34375 -42.4375 4.851562 -42.4375 6.34375 -42.4375 C 7.832031 -42.4375 9.320312 -42.4375 10.8125 -42.4375 L 10.8125 -41.90625 C 10.5625 -41.90625 10.5 -41.421875 10.625 -40.453125 C 10.75 -39.484375 11.210938 -38.175781 12.015625 -36.53125 L 23.25 -15.703125 L 33.203125 -36.046875 C 33.328125 -36.328125 33.519531 -36.78125 33.78125 -37.40625 C 34.039062 -38.03125 34.25 -38.679688 34.40625 -39.359375 C 34.570312 -40.046875 34.570312 -40.640625 34.40625 -41.140625 C 34.25 -41.648438 33.828125 -41.90625 33.140625 -41.90625 L 33.140625 -42.4375 C 34.023438 -42.4375 34.890625 -42.4375 35.734375 -42.4375 C 36.585938 -42.4375 37.457031 -42.4375 38.34375 -42.4375 L 38.34375 -41.90625 C 37.894531 -41.90625 37.257812 -41.410156 36.4375 -40.421875 C 35.613281 -39.429688 34.535156 -37.570312 33.203125 -34.84375 Z M 33.203125 -34.84375 "/></g></g></g><g fill="#000000" fill-opacity="1"><g transform="translate(204.370304, 231.704338)"><g><path d="M 43.40625 -42.390625 L 49.140625 -42.390625 L 49.140625 -41.84375 C 48.984375 -41.84375 48.710938 -41.566406 48.328125 -41.015625 C 47.941406 -40.472656 47.75 -39.195312 47.75 -37.1875 L 47.75 -5.1875 C 47.75 -3.21875 47.941406 -1.953125 48.328125 -1.390625 C 48.710938 -0.828125 48.984375 -0.546875 49.140625 -0.546875 L 49.140625 0 L 42.015625 0 L 42.015625 -0.546875 C 42.222656 -0.546875 42.503906 -0.828125 42.859375 -1.390625 C 43.222656 -1.953125 43.40625 -3.21875 43.40625 -5.1875 L 43.40625 -41.109375 L 25.296875 -3.5625 L 26.984375 0 L 22.21875 0 L 4.65625 -36.53125 L 4.65625 -9.90625 C 4.65625 -7.082031 4.925781 -4.816406 5.46875 -3.109375 C 6.007812 -1.398438 6.5 -0.546875 6.9375 -0.546875 L 6.9375 0 L 1.8125 0 L 1.8125 -0.546875 C 2.25 -0.546875 2.738281 -1.398438 3.28125 -3.109375 C 3.832031 -4.816406 4.109375 -7.082031 4.109375 -9.90625 L 4.109375 -37.609375 L 1.8125 -42.390625 L 6.578125 -42.390625 L 25 -4.171875 Z M 43.40625 -42.390625 "/></g></g></g><g fill="#000000" fill-opacity="1"><g transform="translate(255.317283, 231.704338)"><g><path d="M 8.9375 -0.546875 L 8.9375 0 L 1.8125 0 L 1.8125 -0.546875 C 2.007812 -0.546875 2.289062 -0.828125 2.65625 -1.390625 C 3.019531 -1.953125 3.203125 -3.21875 3.203125 -5.1875 L 3.203125 -37.1875 C 3.203125 -39.195312 3.019531 -40.472656 2.65625 -41.015625 C 2.289062 -41.566406 2.007812 -41.84375 1.8125 -41.84375 L 1.8125 -42.390625 L 2.359375 -42.390625 C 4.128906 -42.421875 6.007812 -42.535156 8 -42.734375 C 9.988281 -42.941406 11.847656 -43.046875 13.578125 -43.046875 C 17.648438 -43.046875 20.878906 -42.613281 23.265625 -41.75 C 25.660156 -40.882812 27.378906 -39.707031 28.421875 -38.21875 C 29.472656 -36.726562 30 -35 30 -33.03125 C 30 -31.09375 29.472656 -29.378906 28.421875 -27.890625 C 27.378906 -26.398438 25.660156 -25.222656 23.265625 -24.359375 C 20.878906 -23.492188 17.648438 -23.0625 13.578125 -23.0625 L 7.484375 -23.0625 L 7.484375 -5.1875 C 7.484375 -3.21875 7.675781 -1.953125 8.0625 -1.390625 C 8.445312 -0.828125 8.738281 -0.546875 8.9375 -0.546875 Z M 7.484375 -23.609375 L 13.578125 -23.609375 L 13.578125 -23.546875 C 14.867188 -23.546875 16.226562 -23.695312 17.65625 -24 C 19.082031 -24.300781 20.410156 -24.800781 21.640625 -25.5 C 22.867188 -26.207031 23.863281 -27.175781 24.625 -28.40625 C 25.394531 -29.632812 25.78125 -31.175781 25.78125 -33.03125 C 25.78125 -34.914062 25.394531 -36.472656 24.625 -37.703125 C 23.863281 -38.929688 22.867188 -39.894531 21.640625 -40.59375 C 20.410156 -41.300781 19.082031 -41.804688 17.65625 -42.109375 C 16.226562 -42.410156 14.867188 -42.5625 13.578125 -42.5625 C 12.617188 -42.5625 11.625 -42.519531 10.59375 -42.4375 C 9.570312 -42.363281 8.535156 -42.285156 7.484375 -42.203125 Z M 7.484375 -23.609375 "/></g></g></g></svg>